<?xml version="1.0" encoding="UTF-8" standalone="no"?>
<!-- Created with Inkscape (http://www.inkscape.org/) -->

<svg
   width="238.96596"
   height="47.128819"
   viewBox="0 0 238.96596 47.12882"
   version="1.1"
   id="svg5"
   xmlns="http://www.w3.org/2000/svg">
  <g
     id="layer1"
     transform="matrix(3.7662565,0,0,3.7662565,-21.365897,-252.51284)"
     style="stroke-width:0.265516">
    <path
       d="m 9.4395425,74.549477 1.4280155,-0.272914 -0.354886,-0.643217 c -0.177444,-0.321606 -0.6374225,-0.52648 -1.0375805,-0.450003 -0.400159,0.07648 -0.567879,0.40131 -0.390435,0.722918 z m 2.0334115,0.824336 -1.428016,0.272914 0.720213,1.305349 L 9.1723635,77.25648 7.4779504,74.185442 C 6.9177852,73.17017 7.5090294,72.150949 8.7722725,71.909525 10.035518,71.6681 11.531376,72.288448 12.091542,73.30372 l 1.694413,3.071037 -1.592787,0.304405 z"
       id="path31862"
       style="font-size:27.6px;line-height:125%;font-family:'PumpOpti Demi';-inkscape-font-specification:'PumpOpti Demi';letter-spacing:0.15px;word-spacing:0px;fill:#0c51ec;fill-opacity:1;stroke-width:0.0702509px" />
    <path
       d="m 13.961004,70.891253 c -1.419651,0.423294 -1.529808,1.44703 -1.28047,2.030969 0.398941,0.934303 1.60193,1.129954 1.80665,1.609399 0.08924,0.208989 -0.112578,0.435467 -0.45094,0.536355 -0.235383,0.07018 -0.56898,0.06571 -0.56898,0.06571 l 0.488178,1.143292 c 0.283696,-0.0153 0.52274,-0.03807 0.89788,-0.149921 0.72086,-0.214937 1.718713,-0.810424 1.238409,-1.935276 -0.3412,-0.799074 -1.632908,-1.183081 -1.811382,-1.601059 -0.115483,-0.270456 0.09158,-0.48464 0.415232,-0.581143 0.139759,-0.04167 0.228545,-0.04736 0.386158,-0.06664 l -0.496052,-1.161723 c -0.245881,0.0456 -0.426077,0.05083 -0.624683,0.110037 z"
       id="path31864"
       style="font-size:27.6px;line-height:125%;font-family:'PumpOpti Demi';-inkscape-font-specification:'PumpOpti Demi';letter-spacing:0.15px;word-spacing:0px;fill:#0c51ec;fill-opacity:1;stroke-width:0.0702507px" />
    <path
       d="m 26.612896,74.502515 c -1.49994,0.05152 -1.788734,0.971609 -1.63983,1.57115 0.238244,0.959265 1.412815,1.428103 1.535072,1.920358 0.0533,0.214573 -0.188871,0.375647 -0.54637,0.387926 -0.248694,0.0085 -0.583073,-0.07545 -0.583073,-0.07545 l 0.291536,1.173838 c 0.287684,0.05377 0.531807,0.08992 0.928164,0.07634 0.761627,-0.02616 1.867756,-0.337843 1.580922,-1.492749 -0.203762,-0.820425 -1.434695,-1.484635 -1.541279,-1.91378 -0.06896,-0.277682 0.176334,-0.426134 0.518288,-0.43788 0.147663,-0.0051 0.237853,0.01093 0.399557,0.03082 l -0.296238,-1.192771 c -0.254964,-0.01672 -0.436913,-0.05499 -0.646749,-0.04779 z"
       id="path31864-0"
       style="font-size:27.6px;line-height:125%;font-family:'PumpOpti Demi';-inkscape-font-specification:'PumpOpti Demi';letter-spacing:0.15px;word-spacing:0px;fill:#0a43c4;fill-opacity:1;stroke-width:0.0702509px" />
    <path
       d="m 18.138242,73.240526 0.478225,-0.05348 c 0.478224,-0.05348 0.906511,0.09839 1.145584,0.70426 l 0.473118,1.198981 1.591467,-0.17798 -0.601463,-1.524236 c -0.231532,-0.586733 -0.606289,-0.831161 -1.080743,-1.037802 0.236446,-0.292803 0.370975,-0.574208 0.111769,-1.231096 l -0.420256,-1.065058 -1.520911,0.17009 0.415228,1.052299 c 0.143452,0.36352 0.06515,0.725204 -0.585549,0.797975 l -0.446866,0.04997 -0.692055,-1.753831 -1.591469,0.177979 1.920145,4.866081 1.591468,-0.17798 z"
       id="path31866"
       style="font-size:27.6px;line-height:125%;font-family:'PumpOpti Demi';-inkscape-font-specification:'PumpOpti Demi';letter-spacing:0.15px;word-spacing:0px;fill:#0c51ec;fill-opacity:1;stroke-width:0.0702509px" />
    <path
       d="m 25.392324,71.577423 0.325211,1.284294 c 0.200665,0.0059 0.269035,-0.0073 0.486672,-0.02881 1.189237,-0.117486 1.957936,-0.983277 1.715216,-1.941799 -0.242719,-0.958523 -1.411032,-1.639379 -2.592497,-1.522661 l -2.324064,0.229595 1.210423,4.780077 1.577877,-0.155878 -0.934391,-3.689995 0.466368,-0.04607 c 0.411958,-0.0407 0.874681,0.119077 0.96352,0.46991 0.115806,0.457335 -0.365152,0.697496 -0.894338,0.621343 z"
       id="path31868"
       style="font-size:27.6px;line-height:125%;font-family:'PumpOpti Demi';-inkscape-font-specification:'PumpOpti Demi';letter-spacing:0.15px;word-spacing:0px;fill:#0a43c4;fill-opacity:1;stroke-width:0.0702507px" />
    <path
       d="m 33.449555,73.726237 -0.175434,-1.219073 c -0.06831,-0.474797 -0.352724,-0.751475 -0.76613,-0.937745 0.332631,-0.320218 0.508553,-0.742514 0.440229,-1.21731 -0.141271,-0.981675 -1.299899,-1.466992 -2.420143,-1.411407 l -2.342326,0.116222 0.704493,4.895538 1.590274,-0.07891 -0.533678,-3.708546 0.470032,-0.02332 c 0.532703,-0.02643 0.890795,0.104427 0.948041,0.502229 0.06002,0.41705 -0.297543,0.564032 -0.994757,0.598627 l 0.133881,0.930344 0.258517,-0.01283 c 0.58754,-0.02915 0.894518,0.239943 0.957305,0.676243 l 0.13942,0.968842 z"
       id="path31870"
       style="font-size:27.6px;line-height:125%;font-family:'PumpOpti Demi';-inkscape-font-specification:'PumpOpti Demi';letter-spacing:0.15px;word-spacing:0px;fill:#0a43c4;fill-opacity:1;stroke-width:0.0702509px" />
    <path
       d="m 39.993791,71.152633 c -0.009,-1.393669 -1.433052,-2.520582 -3.176148,-2.513397 -1.743096,0.0072 -3.152553,1.145781 -3.143567,2.53945 0.009,1.39367 1.433057,2.520583 3.176153,2.513398 1.743094,-0.0072 3.152553,-1.145781 3.143562,-2.539451 z m -1.583907,0.0065 c 0.0046,0.706381 -0.692298,1.262918 -1.567825,1.266527 -0.867566,0.0036 -1.579518,-0.547152 -1.584071,-1.253533 -0.0044,-0.687289 0.700254,-1.26295 1.56782,-1.266526 0.87553,-0.0036 1.579642,0.566243 1.584076,1.253532 z"
       id="path31872"
       style="font-size:27.6px;line-height:125%;font-family:'PumpOpti Demi';-inkscape-font-specification:'PumpOpti Demi';letter-spacing:0.15px;word-spacing:0px;fill:#0a43c4;fill-opacity:1;stroke-width:0.0702509px" />
    <path
       d="m 45.603511,71.088519 -1.669103,-0.09451 0.01109,-0.132396 c 0.03481,-0.416104 -0.114467,-0.772951 -0.673531,-0.804608 -0.518554,-0.02936 -0.771782,0.273022 -0.80078,0.619776 l -0.04745,0.567415 1.920277,0.108734 -0.09173,1.097003 -1.920279,-0.108734 -0.109128,1.305054 -1.644792,-0.09314 0.256217,-3.064042 c 0.08489,-1.015042 1.215366,-1.780844 2.519854,-1.706979 1.377416,0.07799 2.362722,0.950932 2.276788,1.978584 z"
       id="path31874"
       style="font-size:27.6px;line-height:125%;font-family:'PumpOpti Demi';-inkscape-font-specification:'PumpOpti Demi';letter-spacing:0.15px;word-spacing:0px;fill:#0a43c4;fill-opacity:1;stroke-width:0.0702509px" />
    <path
       d="m 50.269702,69.326485 -0.191984,1.081872 -1.276707,-0.140074 c -0.507513,-0.05569 -0.770107,0.0574 -0.81389,0.304148 -0.0494,0.278377 0.21586,0.423579 0.961271,0.505361 l 0.991227,0.108754 -0.191979,1.081872 -1.284642,-0.140945 c -0.396489,-0.0435 -0.677188,0.08051 -0.717606,0.308262 -0.0449,0.25307 0.151302,0.422945 0.864989,0.501249 l 0.999162,0.109623 -0.196471,1.107179 -2.172788,-0.238388 c -1.094317,-0.120063 -1.58822,-0.890193 -1.481563,-1.491234 0.07971,-0.449199 0.442656,-0.854422 0.919215,-1.034333 -0.348218,-0.315552 -0.501692,-0.680686 -0.412999,-1.180498 0.125741,-0.708595 0.848686,-1.229119 2.046092,-1.097745 z"
       id="path31876"
       style="font-size:27.6px;line-height:125%;font-family:'PumpOpti Demi';-inkscape-font-specification:'PumpOpti Demi';letter-spacing:0.15px;word-spacing:0px;fill:#0a43c4;fill-opacity:1;stroke-width:0.0702507px" />
    <path
       d="m 53.45154,69.474723 c -1.701913,-0.08651 -2.493614,0.768579 -2.632923,1.356308 -0.222879,0.940378 0.850246,1.495826 0.735872,1.978388 -0.04983,0.210305 -0.402511,0.342692 -0.808143,0.322065 -0.28218,-0.01436 -0.612918,-0.125075 -0.612918,-0.125075 l -0.272745,1.150719 c 0.293971,0.07756 0.548255,0.134316 0.99798,0.157175 0.864162,0.04398 2.258783,-0.154395 2.527138,-1.286552 0.190613,-0.804265 -0.845867,-1.551955 -0.746147,-1.972652 0.0645,-0.272209 0.414234,-0.392179 0.802249,-0.372452 0.167518,0.0086 0.260135,0.03199 0.430633,0.06572 l 0.277175,-1.169279 c -0.276316,-0.03909 -0.460068,-0.09226 -0.698151,-0.104361 z"
       id="path31878"
       style="font-size:27.6px;line-height:125%;font-family:'PumpOpti Demi';-inkscape-font-specification:'PumpOpti Demi';letter-spacing:0.15px;word-spacing:0px;fill:#0a43c4;fill-opacity:1;stroke-width:0.0702491px" />
    <path
       d="m 56.772489,69.982496 c -1.694363,-0.121819 -2.509303,0.718904 -2.665765,1.305115 -0.250329,0.93795 0.80307,1.516821 0.674611,1.998138 -0.05598,0.209761 -0.411577,0.335178 -0.815408,0.306133 -0.280929,-0.02021 -0.607393,-0.13801 -0.607393,-0.13801 l -0.306333,1.147748 c 0.290796,0.0838 0.542643,0.145937 0.990373,0.178128 0.860327,0.06191 2.256806,-0.108145 2.558206,-1.237381 0.21409,-0.802187 -0.797028,-1.572988 -0.685028,-1.992598 0.07245,-0.271506 0.424742,-0.384538 0.811036,-0.356759 0.166776,0.01204 0.258421,0.03744 0.427415,0.07475 l 0.311305,-1.166257 c -0.274344,-0.04489 -0.45597,-0.101964 -0.692998,-0.119008 z"
       id="path31878-2"
       style="font-size:27.6px;line-height:125%;font-family:'PumpOpti Demi';-inkscape-font-specification:'PumpOpti Demi';letter-spacing:0.15px;word-spacing:0px;fill:#0a43c4;fill-opacity:1;stroke-width:0.0702491px" />
    <path
       d="m 63.365453,73.128382 c 0.114092,-1.406064 -1.226148,-2.535822 -2.989195,-2.519737 -1.763041,0.01608 -3.288752,1.17198 -3.402847,2.578044 -0.114095,1.406065 1.226144,2.535824 2.98919,2.519739 1.763045,-0.01608 3.288757,-1.171983 3.402852,-2.578046 z m -1.602037,0.01462 c -0.05783,0.712662 -0.811588,1.277697 -1.697143,1.285776 -0.877491,0.008 -1.548657,-0.544034 -1.490828,-1.256694 0.05626,-0.693402 0.819643,-1.277773 1.69714,-1.285778 0.885546,-0.0081 1.547097,0.563293 1.490831,1.256696 z"
       id="path31882"
       style="font-size:27.6px;line-height:125%;font-family:'PumpOpti Demi';-inkscape-font-specification:'PumpOpti Demi';letter-spacing:0.15px;word-spacing:0px;fill:#0a43c4;fill-opacity:1;stroke-width:0.0702509px" />
    <path
       d="m 67.233,77.283768 0.630518,-1.155989 c 0.245568,-0.450227 0.157729,-0.77952 -0.11095,-1.061946 0.5232,-0.200012 0.965096,-0.535684 1.210677,-0.985911 0.50772,-0.930878 -0.269322,-1.689029 -1.363371,-1.945065 l -2.287548,-0.535351 -2.532007,4.642212 1.553083,0.363464 1.918092,-3.516641 0.459049,0.107413 c 0.520248,0.12175 0.772896,0.338676 0.567158,0.715896 -0.215733,0.395463 -0.649319,0.43121 -1.330224,0.271864 l -0.48119,0.882202 0.252476,0.05907 c 0.573797,0.134297 0.687917,0.462861 0.462259,0.876585 l -0.501086,0.918708 z"
       id="path31884"
       style="font-size:27.6px;line-height:125%;font-family:'PumpOpti Demi';-inkscape-font-specification:'PumpOpti Demi';letter-spacing:0.15px;word-spacing:0px;fill:#0a43c4;fill-opacity:1;stroke-width:0.0702509px" />
    <path
       d="m 31.834904,77.714781 c -0.17898,0.09951 -0.407064,0.157166 -0.670033,0.172157 -0.774695,0.04415 -1.488421,-0.476507 -1.590822,-1.178748 -0.09962,-0.68326 0.450813,-1.282378 1.225505,-1.326541 0.248756,-0.01417 0.486984,-0.0022 0.707856,0.08723 l -0.190961,-1.309583 c -0.227705,-0.03805 -0.465936,-0.04999 -0.700476,-0.03662 -1.556493,0.08873 -2.65738,1.286967 -2.455349,2.672468 0.202033,1.385501 1.630413,2.433169 3.186906,2.344438 0.241648,-0.01378 0.479605,-0.05286 0.678335,-0.115221 z"
       id="path45443"
       style="font-size:25.5617px;line-height:125%;font-family:'PumpOpti Demi';-inkscape-font-specification:'PumpOpti Demi';letter-spacing:0.11982px;word-spacing:0px;fill:#0a43c4;fill-opacity:1;stroke-width:0.0702509px" />
    <path
       d="m 32.034145,74.125855 0.451893,4.90953 1.451849,-0.08 -0.451896,-4.90953 z"
       id="path45445"
       style="font-size:25.5617px;line-height:125%;font-family:'PumpOpti Demi';-inkscape-font-specification:'PumpOpti Demi';letter-spacing:0.11982px;word-spacing:0px;fill:#0a43c4;fill-opacity:1;stroke-width:0.0702509px" />
    <path
       d="m 37.897257,74.038652 -0.0039,1.065963 -1.186129,-0.0037 c -0.471504,-0.0015 -0.693026,0.134978 -0.69392,0.378092 -0.0011,0.274283 0.2638,0.387318 0.95632,0.389482 l 0.920911,0.0029 -0.0039,1.065963 -1.193499,-0.0037 c -0.368363,-0.0011 -0.604665,0.147721 -0.605491,0.372135 -7.93e-4,0.249347 0.204838,0.393367 0.867894,0.395439 l 0.928275,0.0029 -0.004,1.090897 -2.018633,-0.0063 c -1.016683,-0.0032 -1.588789,-0.696913 -1.586609,-1.289115 0.0016,-0.442593 0.268433,-0.871889 0.674455,-1.095037 -0.367377,-0.2692 -0.565055,-0.606441 -0.563242,-1.098904 0.0024,-0.698174 0.579345,-1.276113 1.691804,-1.272637 z"
       id="path45447"
       style="font-size:25.5617px;line-height:125%;font-family:'PumpOpti Demi';-inkscape-font-specification:'PumpOpti Demi';letter-spacing:0.11982px;word-spacing:0px;fill:#0a43c4;fill-opacity:1;stroke-width:0.0702509px" />
    <path
       d="m 42.764763,78.907195 0.0551,-3.100268 c 0.01863,-1.048432 -0.861698,-1.932663 -1.965966,-1.968128 -1.10427,-0.03547 -2.015014,0.79124 -2.033649,1.83967 l -0.0551,3.100269 1.36687,0.0439 0.05042,-2.836552 c 0.0089,-0.501708 0.210928,-0.874926 0.648597,-0.860869 0.437669,0.01406 0.626192,0.399821 0.617274,0.901525 l -0.05043,2.836553 z"
       id="path45449"
       style="font-size:25.5617px;line-height:125%;font-family:'PumpOpti Demi';-inkscape-font-specification:'PumpOpti Demi';letter-spacing:0.11982px;word-spacing:0px;fill:#0a43c4;fill-opacity:1;stroke-width:0.0702509px" />
    <path
       d="m 46.641564,77.887477 c -0.205375,0.07175 -0.442415,0.09561 -0.697347,0.07281 -0.75099,-0.06717 -1.242573,-0.677529 -1.08916,-1.37826 0.14927,-0.681792 0.885468,-1.188805 1.636464,-1.121647 0.241141,0.02157 0.462984,0.06714 0.640678,0.186022 l 0.286094,-1.306769 c -0.20253,-0.06961 -0.424368,-0.115187 -0.651735,-0.135519 -1.508887,-0.134933 -2.981296,0.879093 -3.283974,2.261617 -0.302678,1.382524 0.679101,2.609578 2.187983,2.744509 0.234257,0.02096 0.474046,0.01665 0.684908,-0.016 z"
       id="path45451"
       style="font-size:25.5617px;line-height:125%;font-family:'PumpOpti Demi';-inkscape-font-specification:'PumpOpti Demi';letter-spacing:0.11982px;word-spacing:0px;fill:#0a43c4;fill-opacity:1;stroke-width:0.0702504px" />
    <path
       d="m 51.214098,74.701437 -0.20544,1.062051 -1.136151,-0.09637 c -0.451638,-0.03831 -0.689775,0.08037 -0.736631,0.322593 -0.05295,0.273269 0.179562,0.40662 0.84291,0.462888 l 0.882108,0.07482 -0.205431,1.062051 -1.143209,-0.09697 c -0.352852,-0.02993 -0.607503,0.09998 -0.650746,0.323564 -0.04799,0.248441 0.121898,0.408043 0.757017,0.461916 l 0.889171,0.07542 -0.210231,1.086895 -1.933583,-0.164013 c -0.973848,-0.0826 -1.390933,-0.818696 -1.276806,-1.408725 0.08533,-0.440966 0.42224,-0.847966 0.853615,-1.038634 -0.301186,-0.296995 -0.426843,-0.648541 -0.331944,-1.139196 0.134482,-0.695619 0.796721,-1.22653 1.862308,-1.136143 z"
       id="path45453"
       style="font-size:25.5617px;line-height:125%;font-family:'PumpOpti Demi';-inkscape-font-specification:'PumpOpti Demi';letter-spacing:0.11982px;word-spacing:0px;fill:#0a43c4;fill-opacity:1;stroke-width:0.0702507px" />
  </g>
</svg>
