<?xml version="1.0" encoding="UTF-8" standalone="no"?>
<!-- Created with Inkscape (http://www.inkscape.org/) -->

<svg
   width="239.22937"
   height="47.182499"
   viewBox="0 0 239.22937 47.1825"
   version="1.1"
   id="svg5"
   xmlns="http://www.w3.org/2000/svg">
  <g
     id="g69438"
     transform="translate(4.3650413e-4,3.7259815e-4)">
    <path
       d="m 13.702531,27.894107 4.725497,-1.094817 -1.336591,-2.42252 c -0.75425,-0.794364 -1.6574,-1.58469 -3.164497,-1.296658 -1.507102,0.288043 -1.989182,1.505482 -1.561001,2.391479 z m 6.926136,3.243677 -4.514081,1.087887 2.327735,4.776984 -6.24789,1.431227 -6.580727,-11.727185 c -2.1371532,-3.808514 1.1621798,-7.844047 5.919877,-8.753311 4.757707,-0.909269 10.440276,1.180103 12.419655,5.072955 l 6.05802,11.914334 -6.670078,1.113388 z"
       id="path31862"
       style="font-size:27.6px;line-height:125%;font-family:'PumpOpti Demi';-inkscape-font-specification:'PumpOpti Demi';letter-spacing:0.15px;word-spacing:0px;fill:#0c51ec;fill-opacity:1;stroke:none;stroke-width:0.264583px" />
    <path
       d="m 29.47833,14.096362 c -5.390771,1.43845 -5.352957,5.185947 -4.413887,7.385211 1.502515,3.518825 5.904349,4.284784 6.675377,6.090496 0.272564,0.62048 0.166808,1.034388 -1.107486,1.414358 -0.886513,0.264316 -2.410069,0.08342 -2.410069,0.08342 l 2.026626,5.009291 c 1.068472,-0.05762 3.209107,-0.124625 4.496847,-0.420039 2.714943,-0.809508 5.947819,-2.852171 4.138871,-7.088652 -1.285047,-3.009518 -5.963284,-4.312063 -6.359799,-5.977219 -0.169783,-0.712911 0.290755,-1.312043 1.013044,-1.501354 0.519009,-0.136037 1.225641,-0.137092 1.819252,-0.209705 L 33.855813,13.98983 c -1.099028,-0.133589 -3.447858,-0.141536 -4.377483,0.10651 z"
       id="path31864"
       style="font-size:27.6px;line-height:125%;font-family:'PumpOpti Demi';-inkscape-font-specification:'PumpOpti Demi';letter-spacing:0.15px;word-spacing:0px;fill:#0c51ec;fill-opacity:1;stroke:none;stroke-width:0.264582px" />
    <path
       d="m 72.41991,34.266169 c 1.009907,3.58299 4.365864,4.648649 4.826315,6.502607 0.200741,0.808137 -0.07427,1.47632 -1.420708,1.522566 -0.936645,0.03201 -1.669965,-0.176638 -1.669965,-0.176638 l 0.828226,4.695012 c 1.083492,0.202512 1.891632,0.41587 3.384415,0.364724 3.35138,-0.128165 6.132934,-1.985423 5.298132,-6.772132 -0.547,-3.136463 -4.134193,-4.66368 -4.535616,-6.27995 -0.259721,-1.045822 -0.051,-1.632541 1.236793,-1.676779 0.556137,-0.01921 0.840184,-7.95e-4 1.449203,0.07412 l -0.688332,-4.63836 c -0.947651,-0.132082 -1.973247,-0.146507 -2.763284,-0.180328 -6.081193,-0.260361 -6.620318,4.169864 -5.945179,6.56515 z"
       id="path31864-0"
       style="font-size:27.6px;line-height:125%;font-family:'PumpOpti Demi';-inkscape-font-specification:'PumpOpti Demi';letter-spacing:0.15px;word-spacing:0px;fill:#0a43c4;fill-opacity:1;stroke:none;stroke-width:0.264583px" />
    <path
       d="m 46.403085,23.136357 1.801118,-0.201419 c 1.801114,-0.20142 3.047952,0.348943 3.948362,2.63079 l 1.617977,4.414689 6.052863,-0.85381 -1.831632,-5.79779 c -0.872009,-2.209787 -2.245954,-2.767133 -4.03287,-3.545396 0.890517,-1.102771 1.619577,-2.25653 0.643341,-4.730539 l -1.138151,-4.461146 -6.745708,0.907732 1.403269,4.230734 c 0.270154,0.81443 -0.09819,2.147798 -1.611675,2.420373 -0.86091,0.155057 -1.683012,0.1882 -1.683012,0.1882 l -2.290939,-6.1146 -7.028802,0.951387 7.614945,18.410945 6.247564,-0.932054 z"
       id="path31866"
       style="font-size:27.6px;line-height:125%;font-family:'PumpOpti Demi';-inkscape-font-specification:'PumpOpti Demi';letter-spacing:0.15px;word-spacing:0px;fill:#0c51ec;fill-opacity:1;stroke:none;stroke-width:0.264583px" />
    <path
       d="m 74.665138,22.072356 c 0.755755,0.02222 1.013254,-0.02749 1.832931,-0.108506 4.478972,-0.442483 7.852943,-4.253738 7.075591,-7.895686 C 82.566469,9.349414 77.932779,7.8444744 73.477513,8.2234992 L 63.955196,9.0335908 68.773568,27.799917 75.225945,26.833748 71.8034,13.23349 73.510234,13.028455 c 1.551539,-0.153286 2.54791,0.109485 2.945269,1.413284 0.358359,1.175837 -0.961341,2.44209 -2.964066,2.526326 0.405501,1.722064 0.739372,3.389074 1.173701,5.104283 z"
       id="path31868"
       style="font-size:27.6px;line-height:125%;font-family:'PumpOpti Demi';-inkscape-font-specification:'PumpOpti Demi';letter-spacing:0.15px;word-spacing:0px;fill:#0a43c4;fill-opacity:1;stroke:none;stroke-width:0.264582px" />
    <path
       d="m 103.84656,24.689124 -0.43787,-4.314796 c -0.25728,-1.788208 -0.93589,-2.978484 -2.49288,-3.680025 1.25277,-1.206023 1.70579,-3.104137 1.44847,-4.89234 -0.3674,-4.1365327 -4.186482,-5.3523292 -9.416875,-5.1562315 L 83.887122,7.2594053 87.01519,25.738633 93.397315,25.1227 91.525546,11.605488 l 1.122009,-0.14018 c 1.838106,-0.229628 2.929059,0.674164 3.05443,1.568944 0.233357,1.665611 -0.637126,1.916855 -3.23793,2.067302 l 0.511789,4.013774 0.973642,-0.04832 c 1.941369,-0.09634 3.509947,1.063501 3.605456,2.546905 l 0.220853,3.430193 z"
       id="path31870"
       style="font-size:27.6px;line-height:125%;font-family:'PumpOpti Demi';-inkscape-font-specification:'PumpOpti Demi';letter-spacing:0.15px;word-spacing:0px;fill:#0a43c4;fill-opacity:1;stroke:none;stroke-width:0.264583px" />
    <path
       d="M 129.05981,15.658828 C 129.48973,9.6775529 124.12465,5.5576863 117.27237,5.2824935 110.01287,4.9909476 104.485,9.6940604 104.82396,15.338138 c 0.0339,5.248919 5.64509,9.703331 12.21003,9.67627 6.56494,-0.02712 11.6495,-4.120058 12.02582,-9.35558 z m -7.08973,-0.478714 c -0.0752,2.412393 -1.75338,3.728515 -4.90439,4.134472 -3.12271,-0.171139 -5.07789,-1.806259 -5.2811,-4.229257 -0.0166,-2.588507 2.24316,-4.15205 5.51064,-4.165518 3.33502,0.19852 4.72597,2.054855 4.67485,4.260303 z"
       id="path31872"
       style="font-size:27.6px;line-height:125%;font-family:'PumpOpti Demi';-inkscape-font-specification:'PumpOpti Demi';letter-spacing:0.15px;word-spacing:0px;fill:#0a43c4;fill-opacity:1;stroke:none;stroke-width:0.264583px" />
    <path
       d="m 149.84433,15.031347 -6.28627,-0.355949 0.0418,-0.498637 c 0.1311,-1.567155 -0.43111,-2.911132 -2.53669,-3.030361 -1.95301,-0.110577 -2.90673,1.028271 -3.01594,2.334236 l -0.004,1.76445 7.10402,0.38696 -0.4381,4.528999 -7.06073,-0.497154 -0.4338,5.104991 -5.99077,-0.455242 0.65801,-11.539968 c 0.0863,-4.5791466 4.51514,-7.1439372 9.67401,-6.8351192 5.74213,0.3437462 9.05997,3.6375258 8.39137,7.8580532 z"
       id="path31874"
       style="font-size:27.6px;line-height:125%;font-family:'PumpOpti Demi';-inkscape-font-specification:'PumpOpti Demi';letter-spacing:0.15px;word-spacing:0px;fill:#0a43c4;fill-opacity:1;stroke:none;stroke-width:0.264583px" />
    <path
       d="m 168.12779,7.9719584 -0.96402,4.4948046 -4.8084,-0.527554 c -1.91143,-0.209743 -2.73719,0.166732 -2.90209,1.096086 -0.18605,1.048439 0.56457,1.34438 3.36738,1.691832 l 3.35457,0.415848 -0.72304,4.332193 -3.96431,-0.413106 c -1.49415,-0.155697 -2.92754,0.08301 -3.07977,0.940773 -0.1691,0.953127 0.0884,1.391937 2.77636,1.686839 l 3.7631,0.412868 -0.75803,4.533308 -8.12482,-0.690027 c -4.13134,-0.350865 -5.89493,-3.684122 -5.49323,-5.947797 0.30021,-1.691799 1.52456,-3.154251 3.3194,-3.831842 -1.31148,-1.18845 -1.8895,-2.563638 -1.55546,-4.446058 0.47358,-2.6687509 3.90576,-5.0522941 8.4155,-4.557506 z"
       id="path31876"
       style="font-size:27.6px;line-height:125%;font-family:'PumpOpti Demi';-inkscape-font-specification:'PumpOpti Demi';letter-spacing:0.15px;word-spacing:0px;fill:#0a43c4;fill-opacity:1;stroke:none;stroke-width:0.264582px" />
    <path
       d="m 179.40202,8.9533771 c -6.40984,-0.3258189 -9.00719,2.1548519 -9.53186,4.3683909 -0.83942,3.541704 2.81784,6.373477 2.38708,8.19093 -0.18767,0.792062 -1.15496,0.948539 -2.68268,0.870852 -1.06276,-0.05408 -1.90074,-0.732431 -1.90074,-0.732431 l -1.07496,5.087659 c 1.10717,0.292111 1.34394,0.35561 3.03772,0.441699 3.99939,0.264881 8.61943,-0.404572 9.21775,-4.851854 0.7179,-3.029068 -2.28953,-5.484076 -1.91395,-7.068529 0.24292,-1.025209 1.18534,-1.24335 2.6467,-1.169053 0.63092,0.03239 0.97974,0.120482 1.62188,0.247518 l 0.82255,-4.9921166 C 180.99084,9.1992195 180.29878,8.9989676 179.4021,8.9533921 Z"
       id="path31878"
       style="font-size:27.6px;line-height:125%;font-family:'PumpOpti Demi';-inkscape-font-specification:'PumpOpti Demi';letter-spacing:0.15px;word-spacing:0px;fill:#0a43c4;fill-opacity:1;stroke:none;stroke-width:0.264576px" />
    <path
       d="m 191.90118,10.440487 c -6.38141,-0.4588014 -8.8832,2.493688 -9.47247,4.701509 -0.94281,3.53256 2.10523,5.71039 1.62142,7.523153 -0.21084,0.790014 -1.14943,1.441083 -2.67036,1.331692 -1.05805,-0.07612 -2.09561,-0.728616 -2.09561,-0.728616 l -1.38615,4.994361 c 1.09521,0.315613 2.04373,0.549636 3.73,0.670876 3.24021,0.233169 7.67886,-0.186618 8.81401,-4.439614 0.80632,-3.021242 -1.70119,-5.740453 -1.27937,-7.320812 0.27286,-1.022561 1.05598,-1.554583 2.51086,-1.44996 0.62813,0.04535 1.62929,0.219422 2.26577,0.359941 l 1.228,-5.115905 c -1.03325,-0.169068 -2.37332,-0.462429 -3.26602,-0.526621 -3e-5,-4e-6 -8e-5,4e-6 -8e-5,4e-6 z"
       id="path31878-2"
       style="font-size:27.6px;line-height:125%;font-family:'PumpOpti Demi';-inkscape-font-specification:'PumpOpti Demi';letter-spacing:0.15px;word-spacing:0px;fill:#0a43c4;fill-opacity:1;stroke:none;stroke-width:0.264576px" />
    <path
       d="m 218.01897,22.419495 c 0.4297,-5.295597 -3.84542,-9.27922 -12.53668,-9.195477 -7.44191,0.07171 -12.50125,4.243769 -12.93096,9.539367 -0.42971,5.295601 4.73294,9.720772 11.37302,9.660192 6.64008,-0.06056 13.66491,-4.708488 14.09462,-10.004082 z m -7.48095,-0.0098 c -0.21039,2.684659 -2.70622,4.610885 -6.04145,4.641312 -3.30485,0.03013 -4.85489,-2.636213 -4.80525,-4.231765 0.0751,-2.415082 2.86466,-4.226731 5.53762,-4.307276 2.63682,-0.04373 5.50419,1.408011 5.30908,3.897729 z"
       id="path31882"
       style="font-size:27.6px;line-height:125%;font-family:'PumpOpti Demi';-inkscape-font-specification:'PumpOpti Demi';letter-spacing:0.15px;word-spacing:0px;fill:#0a43c4;fill-opacity:1;stroke:none;stroke-width:0.264583px" />
    <path
       d="m 231.67427,38.428831 2.02521,-3.856906 c 0.89794,-1.710084 0.69014,-3.995535 0.27897,-4.498703 1.9705,-0.753297 3.97273,-1.834405 4.89765,-3.530075 1.428,-4.81073 -1.66034,-7.039457 -5.99113,-8.052983 l -8.6155,-2.016269 -9.5881,18.043453 6.49684,1.34951 6.86496,-13.049492 1.29564,0.15114 c 1.95939,0.458542 2.91093,1.275541 2.13607,2.696248 -0.81251,1.489415 -2.16337,1.590735 -4.72783,0.990597 l -1.72843,3.235203 0.73716,0.278666 c 2.03961,0.789558 2.12036,1.897575 1.33836,3.490916 l -1.63686,3.335145 z"
       id="path31884"
       style="font-size:27.6px;line-height:125%;font-family:'PumpOpti Demi';-inkscape-font-specification:'PumpOpti Demi';letter-spacing:0.15px;word-spacing:0px;fill:#0a43c4;fill-opacity:1;stroke:none;stroke-width:0.264583px" />
    <path
       d="m 97.947665,39.792438 c -0.761692,0.245372 -1.479804,0.314822 -2.470213,0.371278 -2.9177,0.16628 -5.086265,-1.495558 -5.471934,-4.140378 -0.375194,-2.573332 1.165627,-4.656626 4.083315,-4.822955 0.936879,-0.05337 1.834107,-0.0083 2.665968,0.328531 L 96.26985,26.301613 c -0.857595,-0.143306 -1.7534,-0.13664 -2.638172,-0.13792 -6.075661,-0.0087 -10.484347,4.306846 -9.931739,9.990451 0.561357,5.773611 6.290209,9.599371 12.452713,9.199579 0.909675,-0.05902 1.975311,-0.203265 2.723779,-0.438118 z"
       id="path45443"
       style="font-size:25.5617px;line-height:125%;font-family:'PumpOpti Demi';-inkscape-font-specification:'PumpOpti Demi';letter-spacing:0.11982px;word-spacing:0px;fill:#0a43c4;fill-opacity:1;stroke:none;stroke-width:0.264583px" />
    <path
       d="m 98.545279,26.200229 1.895281,18.761053 6.00823,-0.445446 -1.86985,-18.589828 z"
       id="path45445"
       style="font-size:25.5617px;line-height:125%;font-family:'PumpOpti Demi';-inkscape-font-specification:'PumpOpti Demi';letter-spacing:0.11982px;word-spacing:0px;fill:#0a43c4;fill-opacity:1;stroke:none;stroke-width:0.264583px" />
    <path
       d="m 120.81237,25.722954 -0.006,4.43404 -3.98943,-0.04369 c -1.7758,-0.0057 -2.65777,0.538111 -2.66114,1.453741 0.0732,0.762226 0.58937,1.187331 3.19758,1.195481 l 3.46838,0.01092 -0.0407,4.286098 -3.69427,0.05239 c -1.38735,-0.0041 -2.53234,0.548612 -2.53545,1.393812 -0.0226,0.685354 0.25753,1.177264 2.75475,1.169344 l 3.56225,-0.0113 -0.0387,4.647866 -7.60269,-0.02373 c -3.8987,0.0658 -5.85936,-2.813879 -5.85115,-5.044264 0.006,-1.666919 0.81234,-3.350303 2.34152,-4.190736 -1.38364,-1.013876 -2.12814,-2.284012 -2.12132,-4.138754 -0.37647,-2.843208 1.40179,-5.636779 6.36354,-5.212428 z"
       id="path45447"
       style="font-size:25.5617px;line-height:125%;font-family:'PumpOpti Demi';-inkscape-font-specification:'PumpOpti Demi';letter-spacing:0.11982px;word-spacing:0px;fill:#0a43c4;fill-opacity:1;stroke:none;stroke-width:0.264583px" />
    <path
       d="m 139.40322,44.437272 0.706,-12.292801 c 0.19976,-5.410217 -3.9942,-6.621294 -8.15315,-6.754864 -4.15897,-0.133589 -7.88786,2.908687 -7.91035,6.857905 l -0.0677,11.888241 5.40186,0.148654 0.78866,-10.837008 c 0.0335,-1.889561 0.67439,-2.823916 2.32276,-2.770974 1.64838,0.05295 1.92201,0.980722 1.88843,2.870268 l -0.82075,10.70688 z"
       id="path45449"
       style="font-size:25.5617px;line-height:125%;font-family:'PumpOpti Demi';-inkscape-font-specification:'PumpOpti Demi';letter-spacing:0.11982px;word-spacing:0px;fill:#0a43c4;fill-opacity:1;stroke:none;stroke-width:0.264583px" />
    <path
       d="m 154.2349,40.377511 c -0.77349,0.270229 -2.05687,0.185451 -3.05195,-0.139125 -2.71667,-0.886268 -3.57723,-3.002566 -3.32427,-4.732754 0.38028,-2.600976 2.91549,-4.167314 5.22368,-3.966504 0.90839,0.07902 2.11385,0.305518 2.92823,0.633273 l 0.88449,-5.067167 c -0.81082,-0.22089 -2.18589,-0.40622 -3.04177,-0.487572 -5.79852,-0.55115 -11.18221,2.295138 -12.18473,7.57001 -1.00473,5.286578 2.49403,11.011578 8.4283,11.432163 0.88227,0.07894 2.92113,-0.242622 3.71529,-0.36559 z"
       id="path45451"
       style="font-size:25.5617px;line-height:125%;font-family:'PumpOpti Demi';-inkscape-font-specification:'PumpOpti Demi';letter-spacing:0.11982px;word-spacing:0px;fill:#0a43c4;fill-opacity:1;stroke:none;stroke-width:0.264581px" />
    <path
       d="m 172.12885,28.482404 -0.81411,4.355254 -4.39317,-0.543776 c -1.69417,-0.209705 -2.74161,0.144549 -2.91809,1.056823 -0.19942,1.029201 1.00257,1.259232 2.41318,1.502664 l 4.00865,0.514855 -0.81109,4.336739 -4.3081,-0.521378 c -1.32405,-0.160254 -2.27147,0.521563 -2.43433,1.363637 -0.18075,0.935693 0.73952,1.223676 3.09922,1.509166 l 2.69181,0.325668 -1.08222,4.19883 -7.74562,-0.509458 c -3.66777,-0.311093 -4.71506,-3.706802 -4.28523,-5.929003 0.32137,-1.660791 1.47233,-2.773151 3.097,-3.491256 -1.13434,-1.118559 -1.6076,-2.442571 -1.25018,-4.290504 0.50649,-2.61988 2.93731,-5.086683 6.93173,-4.570077 z"
       id="path45453"
       style="font-size:25.5617px;line-height:125%;font-family:'PumpOpti Demi';-inkscape-font-specification:'PumpOpti Demi';letter-spacing:0.11982px;word-spacing:0px;fill:#0a43c4;fill-opacity:1;stroke:none;stroke-width:0.264582px" />
  </g>
</svg>
