<?xml version="1.0" encoding="UTF-8" standalone="no"?>
<!-- Created with Inkscape (http://www.inkscape.org/) -->

<svg
   width="239.22937"
   height="47.182499"
   viewBox="0 0 239.22937 47.1825"
   version="1.1"
   id="svg5"
   xmlns="http://www.w3.org/2000/svg">
  <g
     id="g45">
    <path
       d="m 13.499814,27.890223 4.878337,-1.151718 -1.209242,-2.326351 C 16.414659,23.61779 15.157097,22.951968 13.65,23.24 c -1.507102,0.288043 -1.838987,1.375624 -1.410806,2.261621 z m 7.320039,3.058742 -4.858738,1.263752 2.644975,4.533259 -5.970654,1.669321 -6.5603812,-11.234178 c -2.2022727,-3.771233 0.8374062,-8.116886 5.5951042,-9.02615 4.757707,-0.909269 10.019589,1.705316 11.999623,5.051532 l 5.69578,11.079158 -5.95702,1.263211 z"
       id="path31862"
       style="font-size:27.6px;line-height:125%;font-family:'PumpOpti Demi';-inkscape-font-specification:'PumpOpti Demi';letter-spacing:0.15px;word-spacing:0px;fill:#0c51ec;fill-opacity:1;stroke:none;stroke-width:0.264583px" />
    <path
       d="m 29.431397,14.568455 c -5.27983,1.510384 -5.011038,5.096932 -3.983509,7.246143 1.471004,3.076796 5.757138,3.937705 6.528166,5.743417 0.272564,0.62048 0.426843,1.234637 -0.847451,1.614607 -0.886513,0.264316 -2.66019,0.10709 -2.66019,0.10709 l 2.133944,4.473401 c 1.133316,0.361925 2.920075,0.118662 4.207815,-0.176749 2.714943,-0.809508 5.677863,-2.769873 3.868915,-7.006354 -1.285047,-3.009518 -6.142972,-4.358017 -6.539487,-6.023173 -0.169783,-0.712911 0.290755,-1.312043 1.013044,-1.501354 0.519009,-0.136037 1.582375,-0.368038 2.175986,-0.440656 l -2.015697,-4.395788 c -1.099028,-0.133589 -2.951911,0.111351 -3.881536,0.359402 z"
       id="path31864"
       style="font-size:27.6px;line-height:125%;font-family:'PumpOpti Demi';-inkscape-font-specification:'PumpOpti Demi';letter-spacing:0.15px;word-spacing:0px;fill:#0c51ec;fill-opacity:1;stroke:none;stroke-width:0.264582px" />
    <path
       d="m 76.495865,42.079218 c -1.150006,0.156987 -2.257539,0.307958 -2.257539,0.307958 l 0.861392,4.347194 c 1.083492,0.202512 1.887501,0.526463 3.335465,0.297742 2.519386,-0.397964 5.340554,-1.223064 5.240166,-5.630105 -0.0725,-3.182978 -4.093585,-5.915194 -4.951831,-7.449177 -0.43553,-0.943179 0.104878,-1.387761 1.185284,-1.500991 0.556995,-0.05837 1.126591,-0.450744 1.73561,-0.375829 l -0.92656,-4.456022 c -0.947651,-0.132082 -1.761672,-0.182908 -2.548539,-0.104524 -4.870416,0.485167 -6.236084,4.113777 -5.62532,6.377619 0.926676,3.434796 5.038054,5.908202 5.371088,6.833397 0.276546,0.768267 -0.269211,1.195751 -1.419216,1.352738 z"
       id="path31864-0"
       style="font-size:27.6px;line-height:125%;font-family:'PumpOpti Demi';-inkscape-font-specification:'PumpOpti Demi';letter-spacing:0.15px;word-spacing:0px;fill:#0a43c4;fill-opacity:1;stroke:none;stroke-width:0.264583px" />
    <path
       d="m 46.560157,23.283545 1.644483,-0.348234 c 1.700511,-0.360098 2.946857,0.462571 4.007675,2.335177 l 1.366909,4.461984 6.037597,-0.863296 -1.758746,-5.489912 c -0.872009,-2.209787 -1.940656,-3.004195 -3.727572,-3.782458 0.405794,-1.186821 0.853166,-2.103779 0.592307,-4.765897 -0.133918,-1.366662 -0.898355,-2.68407 -1.471187,-3.996939 l -6.306282,0.949294 1.17675,3.947311 c 0.585085,0.957402 -0.170351,2.553834 -1.781762,2.781953 -0.866126,0.122613 -1.614998,0.243687 -1.614998,0.243687 l -2.443076,-6.20734 -6.392352,1.124141 7.549606,17.801028 5.932011,-1.017305 z"
       id="path31866"
       style="font-size:27.6px;line-height:125%;font-family:'PumpOpti Demi';-inkscape-font-specification:'PumpOpti Demi';letter-spacing:0.15px;word-spacing:0px;fill:#0c51ec;fill-opacity:1;stroke:none;stroke-width:0.264583px" />
    <path
       d="m 74.705838,21.816723 c 0.993177,-0.06705 1.159714,-0.05493 1.984363,-0.234964 4.286662,-0.935831 7.487224,-3.697937 6.700085,-7.363572 C 82.377275,9.5006837 77.574089,8.0343161 72.557074,8.2459802 69.656446,8.3683555 66.922659,9.0664105 64.130358,9.5341093 l 5.060478,18.0381257 5.969487,-0.763455 -3.408282,-13.502826 1.79557,-0.165487 c 1.851115,-0.130465 3.054995,0.0209 3.390674,1.55116 0.290391,1.323805 -1.512635,1.728372 -3.547998,2.288762 0.563385,2.080465 0.869581,3.149183 1.315551,4.83633 z"
       id="path31868"
       style="font-size:27.6px;line-height:125%;font-family:'PumpOpti Demi';-inkscape-font-specification:'PumpOpti Demi';letter-spacing:0.15px;word-spacing:0px;fill:#0a43c4;fill-opacity:1;stroke:none;stroke-width:0.264582px" />
    <path
       d="m 103.84191,24.674717 -0.26886,-3.935863 c -0.25728,-1.788208 -1.24146,-3.510486 -2.79845,-4.212027 1.25277,-1.206023 1.87113,-2.641492 1.61381,-4.429695 -0.3674,-4.1365332 -4.529025,-5.4609224 -9.759418,-5.2648247 -2.855898,-0.099422 -5.729079,0.3510906 -8.600279,0.7385695 l 3.217431,18.1507172 6.085772,-0.447682 -2.121951,-13.640282 2.335893,-0.200809 c 0.771366,-0.06631 2.428856,0.561217 2.554227,1.455997 0.233357,1.665611 -1.053795,1.829159 -3.31226,2.355255 l 0.328141,3.73686 1.10445,-0.05839 c 1.876201,-0.09919 2.832568,0.953565 3.0821,2.418947 l 0.637013,3.74087 z"
       id="path31870"
       style="font-size:27.6px;line-height:125%;font-family:'PumpOpti Demi';-inkscape-font-specification:'PumpOpti Demi';letter-spacing:0.15px;word-spacing:0px;fill:#0a43c4;fill-opacity:1;stroke:none;stroke-width:0.264583px" />
    <path
       d="m 128.84902,15.639855 c 0.49816,-6.1142568 -4.58589,-10.3613595 -11.60508,-10.3034082 -7.2711,0.060031 -12.54063,3.9356453 -12.14077,9.9641012 0.0339,5.248919 5.38041,9.426254 11.94535,9.399193 6.56494,-0.02712 11.37425,-3.828192 11.8005,-9.059886 z M 122.3386,15.2314 c -0.0752,2.412393 -2.08442,3.845098 -5.23543,4.251055 -3.12271,-0.171139 -5.24335,-1.89681 -5.44656,-4.319808 -0.0166,-2.588507 2.27399,-4.4845 5.54147,-4.497968 3.33502,0.19852 5.19164,2.361273 5.14052,4.566721 z"
       id="path31872"
       style="font-size:27.6px;line-height:125%;font-family:'PumpOpti Demi';-inkscape-font-specification:'PumpOpti Demi';letter-spacing:0.15px;word-spacing:0px;fill:#0a43c4;fill-opacity:1;stroke:none;stroke-width:0.264583px" />
    <path
       d="m 149.72918,14.858264 -6.36238,-0.497799 0.032,-0.966251 c -0.11879,-1.564088 -0.49364,-2.186713 -2.28164,-2.309569 -1.52453,-0.104753 -2.79245,1.243407 -2.82531,2.314133 l -0.0543,1.770666 6.76088,0.419571 -0.39768,4.439975 -6.95187,-0.364726 -0.29173,4.930255 -6.04714,-0.139439 0.45581,-11.034524 c -0.001,-3.7159787 4.86068,-7.9397924 9.79051,-7.4816306 5.40305,0.502142 8.43278,3.2099954 8.36632,7.2317436 z"
       id="path31874"
       style="font-size:27.6px;line-height:125%;font-family:'PumpOpti Demi';-inkscape-font-specification:'PumpOpti Demi';letter-spacing:0.15px;word-spacing:0px;fill:#0a43c4;fill-opacity:1;stroke:none;stroke-width:0.264583px" />
    <path
       d="m 167.90378,8.1058584 -0.68584,4.1800846 -4.86213,-0.346361 c -1.91143,-0.209743 -2.68267,0.265109 -2.73979,1.207249 -0.0591,0.975086 0.27546,1.3765 3.04136,1.52378 l 3.8447,0.501966 -0.69005,4.031792 -4.32371,-0.141936 C 159.9869,19.013145 158.72546,18.543529 158.52,19.87 c -0.0643,1.303014 0.62645,1.774335 2.69183,1.937591 l 3.73618,0.295322 -0.68568,4.121629 c -2.70479,-0.124255 -5.41486,0.01652 -8.18365,-0.403352 -3.84885,-0.583658 -5.46606,-3.725135 -4.94196,-6.175371 0.42237,-1.974607 1.46656,-2.432279 2.74709,-3.257049 -1.07534,-1.08782 -1.51306,-2.553544 -1.26557,-4.407977 0.43147,-3.2329176 2.97226,-4.9651716 7.55027,-4.7718961 z"
       id="path31876"
       style="font-size:27.6px;line-height:125%;font-family:'PumpOpti Demi';-inkscape-font-specification:'PumpOpti Demi';letter-spacing:0.15px;word-spacing:0px;fill:#0a43c4;fill-opacity:1;stroke:none;stroke-width:0.264582px" />
    <path
       d="m 170.39661,13.374698 c -0.83942,3.541704 2.02829,6.511374 1.81675,7.788746 -0.18767,0.792062 -1.0533,1.387063 -2.58102,1.309376 -1.06276,-0.05408 -1.80581,-0.814645 -1.80581,-0.814645 l -1.21281,4.748987 c 1.10717,0.292111 1.4755,0.911865 3.16928,0.997954 3.99939,0.264881 8.16259,-0.899415 8.69502,-5.44894 0.57331,-2.309458 -1.9694,-5.543131 -1.70485,-6.710743 0.13696,-0.46112 0.86053,-1.311355 2.27868,-1.313071 0.63092,0.03239 1.29807,0.286035 1.94021,0.413071 l 1.31553,-4.6778864 c -0.90716,-0.3303858 -2.29749,-0.6323129 -3.0851,-0.6425472 -6.3873,-0.082998 -8.23678,2.4718796 -8.82588,4.3496986 z"
       id="path31878"
       style="font-size:27.6px;line-height:125%;font-family:'PumpOpti Demi';-inkscape-font-specification:'PumpOpti Demi';letter-spacing:0.15px;word-spacing:0px;fill:#0a43c4;fill-opacity:1;stroke:none;stroke-width:0.264576px" />
    <path
       d="m 182.81226,15.161162 c -1.17342,3.462797 1.75987,6.211387 1.46247,7.540031 -0.17861,0.797919 -1.35532,1.226333 -2.87625,1.116942 -1.05805,-0.07612 -1.70813,-0.608481 -1.70813,-0.608481 l -1.38603,4.42042 c 0.91915,0.515118 2.20779,1.145777 3.3215,1.243543 3.15732,0.277163 6.6997,-0.350418 8.66458,-4.16674 1.18063,-3.105569 -1.2476,-6.167701 -1.26998,-7.647988 0.27286,-1.022561 1.27718,-1.44388 2.73206,-1.339257 0.62813,0.04535 1.34783,-0.01825 1.98431,0.122271 l 1.29271,-4.488032 c -1.18054,-0.609901 -2.30465,-0.71021 -3.19739,-0.774404 -5.27476,-0.402433 -8.30532,2.473089 -9.01985,4.581695 z"
       id="path31878-2"
       style="font-size:27.6px;line-height:125%;font-family:'PumpOpti Demi';-inkscape-font-specification:'PumpOpti Demi';letter-spacing:0.15px;word-spacing:0px;fill:#0a43c4;fill-opacity:1;stroke:none;stroke-width:0.264576px" />
    <path
       d="m 217.6514,22.419868 c 0.12637,-5.135305 -3.63666,-9.194702 -12.18057,-9.188827 -7.44225,0.0051 -12.16223,5.099838 -12.59194,9.51586 -0.51456,5.28803 4.36143,9.462986 11.00151,9.402406 6.64008,-0.06056 13.6403,-4.418047 13.771,-9.729439 z m -6.83057,-0.102482 c -0.21039,2.684659 -3.02998,4.761179 -6.36521,4.791606 -3.30485,0.03013 -4.96223,-2.537063 -4.91259,-4.132615 0.0751,-2.415082 3.08759,-4.547667 5.76055,-4.628212 2.63682,-0.04373 5.71236,1.479503 5.51725,3.969221 z"
       id="path31882"
       style="font-size:27.6px;line-height:125%;font-family:'PumpOpti Demi';-inkscape-font-specification:'PumpOpti Demi';letter-spacing:0.15px;word-spacing:0px;fill:#0a43c4;fill-opacity:1;stroke:none;stroke-width:0.264583px" />
    <path
       d="m 231.56261,38.466977 2.1289,-4.187682 c 0.87531,-1.721783 0.69855,-3.702532 0.28738,-4.2057 1.9705,-0.753297 3.89961,-2.260411 4.82453,-3.956081 1.7273,-4.642522 -1.7716,-6.176646 -6.81934,-7.479229 l -7.5415,-1.9461 -9.18266,17.725563 5.88883,1.399458 7.30611,-12.920726 1.0274,0.271341 c 2.24343,0.5925 3.05962,0.999358 2.04421,2.511631 -0.73042,1.242909 -1.74358,1.284505 -4.30804,0.684367 l -1.94971,3.580336 0.73716,0.278666 c 2.03961,0.789558 2.58712,0.982071 1.62056,2.908611 l -1.88983,3.766812 z"
       id="path31884"
       style="font-size:27.6px;line-height:125%;font-family:'PumpOpti Demi';-inkscape-font-specification:'PumpOpti Demi';letter-spacing:0.15px;word-spacing:0px;fill:#0a43c4;fill-opacity:1;stroke:none;stroke-width:0.264583px" />
    <path
       d="m 98.099737,39.842586 c -0.761692,0.245372 -1.498205,0.13853 -2.488614,0.19498 -2.865074,4.58e-4 -5.129864,-1.456165 -5.539499,-4.025469 -0.375194,-2.573332 1.21859,-4.456113 4.136278,-4.622442 0.936879,-0.05337 1.853496,-0.09692 2.666963,0.09372 L 96.170048,26.48388 c -0.857595,-0.143306 -1.571776,-0.275474 -2.456548,-0.276754 -6.075661,-0.0087 -10.305713,4.117004 -9.467433,9.888777 0.825081,5.680891 5.551961,9.125783 11.39096,9.13694 0.911588,0.0017 2.327607,-0.03103 3.076075,-0.265887 z"
       id="path45443"
       style="font-size:25.5617px;line-height:125%;font-family:'PumpOpti Demi';-inkscape-font-specification:'PumpOpti Demi';letter-spacing:0.11982px;word-spacing:0px;fill:#0a43c4;fill-opacity:1;stroke:none;stroke-width:0.264583px" />
    <path
       d="m 98.650513,26.456744 1.982127,18.410358 5.60506,-0.634618 -1.99442,-18.400033 z"
       id="path45445"
       style="font-size:25.5617px;line-height:125%;font-family:'PumpOpti Demi';-inkscape-font-specification:'PumpOpti Demi';letter-spacing:0.11982px;word-spacing:0px;fill:#0a43c4;fill-opacity:1;stroke:none;stroke-width:0.264583px" />
    <path
       d="m 120.66626,25.821792 0.0262,4.150212 -3.87506,0.141669 c -2.76224,-0.06482 -2.82891,0.512105 -2.83228,1.427735 0.0732,0.762226 0.1646,1.258934 3.36924,1.228579 l 3.34472,0.0083 -0.007,4.147766 -3.6052,0.186241 c -2.61168,-0.08339 -2.62774,0.508292 -2.63085,1.353492 -0.0226,0.685354 0.0546,1.388373 2.93022,1.316432 l 3.27508,-0.0021 0.0728,4.457223 -7.50038,0.0016 c -3.86317,-0.60438 -5.37657,-3.272488 -5.39617,-4.97828 0.006,-1.666919 0.49625,-3.217308 2.02543,-4.057741 -1.38364,-1.013876 -2.17382,-2.218631 -2.167,-4.073373 -0.37647,-2.843208 1.85824,-5.215689 6.31573,-5.493101 z"
       id="path45447"
       style="font-size:25.5617px;line-height:125%;font-family:'PumpOpti Demi';-inkscape-font-specification:'PumpOpti Demi';letter-spacing:0.11982px;word-spacing:0px;fill:#0a43c4;fill-opacity:1;stroke:none;stroke-width:0.264583px" />
    <path
       d="m 139.04724,44.457212 c 0.73115,-3.865933 1.45941,-7.828965 1.19215,-11.902872 -0.0353,-5.508332 -3.73551,-6.81235 -8.05187,-7.157341 -4.28306,-0.34233 -7.77579,3.190244 -8.078,7.511485 -0.25442,3.637857 -0.081,7.521891 -0.0392,11.308546 l 5.30443,0.05246 L 129.77,33.51 c 0.0335,-1.889561 1.06745,-2.888849 2.71582,-2.835907 1.64838,0.05295 2.13088,1.240251 2.0973,3.129797 l -0.84759,10.643495 z"
       id="path45449"
       style="font-size:25.5617px;line-height:125%;font-family:'PumpOpti Demi';-inkscape-font-specification:'PumpOpti Demi';letter-spacing:0.11982px;word-spacing:0px;fill:#0a43c4;fill-opacity:1;stroke:none;stroke-width:0.264583px" />
    <path
       d="m 154.2932,40.462799 c -0.77349,0.270229 -2.33962,-0.03576 -3.3347,-0.360345 -2.71667,-0.886268 -3.6182,-2.818831 -3.36524,-4.549019 0.38028,-2.600976 3.19324,-4.14333 5.50143,-3.94252 0.90839,0.07902 2.10196,0.234102 2.91634,0.561857 l 0.69602,-5.205166 c -0.81082,-0.22089 -2.30476,-0.391231 -3.15983,-0.480731 -5.74529,-0.601358 -10.39982,2.97896 -11.40234,7.725677 -1.112,5.26506 1.44131,10.695383 7.73426,11.159254 0.88227,0.07894 2.65619,0.06562 3.45035,-0.05735 z"
       id="path45451"
       style="font-size:25.5617px;line-height:125%;font-family:'PumpOpti Demi';-inkscape-font-specification:'PumpOpti Demi';letter-spacing:0.11982px;word-spacing:0px;fill:#0a43c4;fill-opacity:1;stroke:none;stroke-width:0.264581px" />
    <path
       d="m 172.10991,28.66538 -1.09929,4.163747 -4.19502,-0.52853 c -1.40659,-0.177216 -2.5742,0.174036 -2.75068,1.08631 -0.31212,1.39725 0.7931,1.544582 2.41973,1.660014 l 3.68711,0.514855 -0.9882,4.313711 -3.88231,-0.570406 c -1.32405,-0.160254 -2.48258,-0.05 -2.73587,1.195732 -0.27457,1.350357 0.85087,1.31629 3.1714,1.676 l 2.5928,0.401915 -1.0308,4.150112 c -2.55566,-0.141153 -5.05851,-0.276772 -7.48102,-0.833418 -2.60617,-0.598846 -4.91399,-3.224331 -3.96345,-5.718851 0.32137,-1.660791 1.42954,-2.865836 3.05421,-3.583941 -1.13434,-1.118559 -1.51562,-2.503562 -1.1582,-4.351495 0.50649,-2.61988 4.22336,-4.786951 7.0149,-4.561114 z"
       id="path45453"
       style="font-size:25.5617px;line-height:125%;font-family:'PumpOpti Demi';-inkscape-font-specification:'PumpOpti Demi';letter-spacing:0.11982px;word-spacing:0px;fill:#0a43c4;fill-opacity:1;stroke:none;stroke-width:0.264582px" />
  </g>
</svg>
