<?xml version="1.0" encoding="UTF-8" standalone="no"?>
<!-- Created with Inkscape (http://www.inkscape.org/) -->

<svg
   width="12.938615"
   height="17.668455"
   viewBox="0 0 12.938615 17.668455"
   version="1.1"
   id="svg5"
   xmlns="http://www.w3.org/2000/svg"
   xmlns:svg="http://www.w3.org/2000/svg">
  <g
     id="g26194"
     transform="scale(1.046173)"
     style="stroke-width:0.955865">
    <path
       style="color:#000000;overflow:visible;fill:#000000;fill-rule:evenodd;stroke:none;stroke-width:0.0955865;stroke-linejoin:round;stroke-miterlimit:4;stroke-dasharray:none"
       d="M 12.367567,16.888655 C 10.769673,15.791046 10.532336,14.998992 10.499474,13.547412 10.47681,12.531847 10.50437,0 10.50437,0 9.1669857,0.90787497 8.8325356,1.5055956 8.4235481,2.8309004 7.1536714,2.8304471 6.4018822,2.8422323 5.1354693,2.8573415 5.1430239,1.5299592 5.0379393,2.1294173 5.0491579,0.61604048 2.8666847,2.1665104 3.2950611,2.5199527 2.9865423,3.2544872 1.2352785,4.531858 0.8142904,5.1872958 0.81732736,6.8022065 l -0.7676879,0.5959074 c -0.10837084,2.297885 -0.04744293,7.6778991 0.26369358,7.5649571 l 1.46934476,0.09368 c 0,0 -0.021908,0.532675 -0.1337543,0.766906 -0.2027279,0.42506 -0.92874084,1.06467 -0.92874084,1.06467 z"
       id="path1103" />
    <path
       style="color:#000000;overflow:visible;fill:#ffffff;fill-rule:evenodd;stroke:none;stroke-width:0.0955865;stroke-linejoin:round;stroke-miterlimit:4;stroke-dasharray:none"
       d="M 5.8466146,5.6913378 C 5.7110211,6.443785 5.3429332,7.2050929 4.8993097,7.5971128 4.7345552,7.7427026 4.4990111,7.8936031 4.2810575,7.8083697 c 0,0 -0.4367751,-0.050632 -0.7313721,-0.9861813 0.8252842,-0.4051158 1.446322,-0.6788207 2.2969292,-1.1308506 z"
       id="path3128" />
    <path
       style="color:#000000;overflow:visible;fill:#ff8e5c;fill-opacity:1;fill-rule:evenodd;stroke:none;stroke-width:0.0955865;stroke-linejoin:round;stroke-miterlimit:4;stroke-dasharray:none"
       d="M 7.5873814,8.1196545 C 6.9229159,10.152108 7.2924118,11.287264 7.0616298,13.410184 c -0.605464,0.409724 -1.4254789,0.59281 -2.1018429,0.81688 -1.7463608,0.309739 -2.0084113,0.05477 -3.8487515,0.05893 0.2678109,-2.44622 0.014732,-5.1384178 0.014732,-5.1384178 0,0 0.9055075,0.042581 2.026565,-0.09481 0.5268886,-0.064573 3.2270144,-0.5333596 4.435049,-0.9331117 z"
       id="path4284" />
    <path
       style="color:#000000;fill:#000000;fill-rule:evenodd;stroke:none;stroke-width:0.0955865;stroke-linecap:round;stroke-linejoin:round;stroke-miterlimit:4;stroke-dasharray:none"
       d="m 2.4794349,10.958482 c -0.6190057,-0.01511 -0.8712994,-0.01889 -0.8712994,-0.01889 -0.015865,-0.279521 0.067651,-0.496791 0.067651,-0.501324 0,0 0.044459,-0.139383 0.7873148,-0.112564 0.4187217,0.01511 0.8195012,0.06346 1.1054355,0.130317 0.2742323,0.06421 0.2509263,0.186221 0.2044655,0.33618 -0.046461,0.149959 -0.1852768,0.171868 -0.3025998,0.182444 -0.1452751,0.01133 -0.7426104,-0.01133 -0.9909606,-0.01511 z"
       id="path45162" />
  </g>
</svg>
